<svg xmlns="http://www.w3.org/2000/svg" xmlns:svg="http://www.w3.org/2000/svg" id="svg2" width="28" height="32" x="0" y="0" version="1.1" viewBox="0 0 28 32" xml:space="preserve" style="enable-background:new 0 0 28 32"><metadata id="metadata12"/><g id="comment_x5F_alt2_x5F_stroke"><path style="opacity:1;fill:#aaacaf;fill-opacity:1;stroke:none" id="path4140" d="M 11.111328 0 L 11.111328 4.3066406 A 14 14 0 0 0 0 18 A 14 14 0 0 0 14 32 A 14 14 0 0 0 28 18 A 14 14 0 0 0 16.888672 4.3183594 L 16.888672 0 L 11.111328 0 z M 16.888672 8.4296875 A 10 10 0 0 1 24 18 A 10 10 0 0 1 14 28 A 10 10 0 0 1 4 18 A 10 10 0 0 1 11.111328 8.4355469 L 11.111328 15.035156 L 5.3320312 15.035156 L 14 23.703125 L 22.667969 15.035156 L 16.888672 15.035156 L 16.888672 8.4296875 z"/></g></svg>