<svg xmlns="http://www.w3.org/2000/svg" xmlns:svg="http://www.w3.org/2000/svg" id="svg8" width="32" height="32" x="0" y="0" version="1.1" viewBox="0 0 32 32" xml:space="preserve" style="enable-background:new 0 0 32 32"><metadata id="metadata14"/><path id="rect5115" d="M 13,0 C 10.784,0 9,1.784 9,4 V 6 H 4 C 1.784,6 0,7.784 0,10 v 5 h 2 c 2.216,0 4,1.784 4,4 0,2.216 -1.784,4 -4,4 H 0 v 5 c 0,2.216 1.784,4 4,4 h 5 v -2 c 0,-2.216 1.784,-4 4,-4 2.216,0 4,1.784 4,4 v 2 h 5 c 2.216,0 4,-1.784 4,-4 v -5 h 2 c 2.216,0 4,-1.784 4,-4 0,-2.216 -1.784,-4 -4,-4 H 26 V 10 C 26,7.784 24.216,6 22,6 H 17 V 4 C 17,1.784 15.216,0 13,0 Z" style="display:inline;fill:#aaacaf;fill-opacity:1;stroke:none;stroke-width:1.9352982;stroke-miterlimit:4;stroke-dasharray:none;stroke-opacity:1"/></svg>