<svg xmlns="http://www.w3.org/2000/svg" xmlns:svg="http://www.w3.org/2000/svg" id="svg4" enable-background="new 0 0 24 24" version="1.1" viewBox="0 0 24 24"><metadata id="metadata10"/><path id="path2" d="M 2.6666667,0 C 1.2,0 0,1.2 0,2.6666666 V 21.333333 C 0,22.8 1.2,24 2.6666667,24 H 21.333333 C 22.8,24 24,22.8 24,21.333333 V 4 L 20.000001,0 Z m 4,1.3333333 H 17.333334 V 8 H 6.6666667 Z m 6.6666663,1.3333333 v 4 H 16 v -4 z M 5.3333334,12 H 18.666667 c 0.8,0 1.333334,0.533333 1.333334,1.333334 V 20 c 0,0.8 -0.533334,1.333333 -1.333334,1.333333 H 5.3333334 C 4.5333334,21.333333 4,20.8 4,20 V 13.333334 C 4,12.533333 4.5333334,12 5.3333334,12 Z" style="fill:#1a1a1a;stroke-width:1.33333337"/></svg>