<svg xmlns="http://www.w3.org/2000/svg" xmlns:xlink="http://www.w3.org/1999/xlink" style="enable-background:new 0 0 32 32" width="32" height="32" x="0" y="0" version="1.1" viewBox="0 0 32 32" xml:space="preserve"><g fill="#aaacaf"><path d="m32 4h-8c0-2.2-1.8-4-4-4h-8c-2.2 0-4 1.8-4 4h-8v4h4v18c0 3.3 2.7 6 6 6h12c3.3 0 6-2.7 6-6v-18h4v-4zm-8 22c0 1.1-0.9 2-2 2h-12c-1.1 0-2-0.9-2-2v-18h16v18z"/><circle cx="12" cy="22" r="2"/><circle cx="12" cy="14" r="2"/><circle cx="20" cy="22" r="2"/><circle cx="20" cy="14" r="2"/></g></svg>