<svg xmlns="http://www.w3.org/2000/svg" xmlns:svg="http://www.w3.org/2000/svg" id="Capa_1" width="900.5" height="900.5" x="0" style="enable-background:new 0 0 900.5 900.5" y="0" version="1.1" viewBox="0 0 900.5 900.5" xml:space="preserve"><metadata id="metadata43"/><g id="g6" style="fill:#1a1a1a"><path id="path2" d="M176.415,880.5c0,11.046,8.954,20,20,20h507.67c11.046,0,20-8.954,20-20V232.487h-547.67V880.5L176.415,880.5z M562.75,342.766h75v436.029h-75V342.766z M412.75,342.766h75v436.029h-75V342.766z M262.75,342.766h75v436.029h-75V342.766z" style="fill:#1a1a1a"/><path id="path4" d="M618.825,91.911V20c0-11.046-8.954-20-20-20h-297.15c-11.046,0-20,8.954-20,20v71.911v12.5v12.5H141.874 c-11.046,0-20,8.954-20,20v50.576c0,11.045,8.954,20,20,20h34.541h547.67h34.541c11.046,0,20-8.955,20-20v-50.576 c0-11.046-8.954-20-20-20H618.825v-12.5V91.911z M543.825,112.799h-187.15v-8.389v-12.5V75h187.15v16.911v12.5V112.799z" style="fill:#1a1a1a"/></g></svg>