<svg xmlns="http://www.w3.org/2000/svg" xmlns:svg="http://www.w3.org/2000/svg" id="Capa_1" x="0" y="0" version="1.1" viewBox="0 0 67.671 67.671" xml:space="preserve" style="enable-background:new 0 0 67.671 67.671"><metadata id="metadata43"/><path id="path2" d="M 52.946,23.348 H 42.834 v 6 h 10.112 c 3.007,0 5.34,1.536 5.34,2.858 v 26.606 c 0,1.322 -2.333,2.858 -5.34,2.858 H 14.724 c -3.007,0 -5.34,-1.536 -5.34,-2.858 V 32.207 c 0,-1.322 2.333,-2.858 5.34,-2.858 h 10.11 v -6 h -10.11 c -6.359,0 -11.34,3.891 -11.34,8.858 v 26.606 c 0,4.968 4.981,8.858 11.34,8.858 h 38.223 c 6.358,0 11.34,-3.891 11.34,-8.858 V 32.207 C 64.286,27.239 59.305,23.348 52.946,23.348 Z" style="fill:#1a1a1a"/><path id="path4" d="m 24.957,18.40721 c 0.768,0 1.535,-0.343782 2.121,-1.031347 l 3.756,-4.406986 v 15.285999 7.039914 13.486128 c 0,1.94419 1.343,3.519957 3,3.519957 1.657,0 3,-1.575767 3,-3.519957 V 35.29479 28.254876 12.730693 l 3.959,4.64517 c 0.586,0.687565 1.354,1.031347 2.121,1.031347 0.767,0 1.535,-0.343782 2.121,-1.031347 1.172,-1.373957 1.172,-3.603263 0,-4.977219 L 36.078,1.8892255 c -0.586,-0.687565 -1.353,-1.02900096 -2.12,-1.02900096 -0.008,0 -0.015,0 -0.023,0 -0.008,0 -0.015,0 -0.023,0 -0.767,0 -1.534,0.34143596 -2.12,1.02900096 L 22.835,12.398644 c -1.172,1.373956 -1.172,3.603262 0,4.977219 0.587,0.687565 1.354,1.031347 2.122,1.031347 z" style="stroke-width:1.08319855;fill:#1a1a1a"/></svg>