<svg xmlns="http://www.w3.org/2000/svg" xmlns:svg="http://www.w3.org/2000/svg" id="svg8" width="95mm" height="60mm" version="1.1" viewBox="0 0 95 60"><defs id="defs2"><marker id="marker2306" orient="auto" refX="0" refY="0" style="overflow:visible"><path id="path2304" d="M 8.7185878,4.0337352 -2.2072895,0.01601326 8.7185884,-4.0017078 c -1.7454984,2.3720609 -1.7354408,5.6174519 -6e-7,8.035443 z" transform="scale(-0.6)" style="fill:#000;fill-opacity:1;fill-rule:evenodd;stroke:#000;stroke-width:.625;stroke-linejoin:round;stroke-opacity:1"/></marker><marker style="overflow:visible" id="marker1726" orient="auto" refX="0" refY="0"><path style="fill:#000;fill-opacity:1;fill-rule:evenodd;stroke:#000;stroke-width:.625;stroke-linejoin:round;stroke-opacity:1" id="path1724" d="M 8.7185878,4.0337352 -2.2072895,0.01601326 8.7185884,-4.0017078 c -1.7454984,2.3720609 -1.7354408,5.6174519 -6e-7,8.035443 z" transform="scale(-0.6)"/></marker><marker style="overflow:visible" id="marker1388" orient="auto" refX="0" refY="0"><path style="fill:#000;fill-opacity:1;fill-rule:evenodd;stroke:#000;stroke-width:.625;stroke-linejoin:round;stroke-opacity:1" id="path1386" d="M 8.7185878,4.0337352 -2.2072895,0.01601326 8.7185884,-4.0017078 c -1.7454984,2.3720609 -1.7354408,5.6174519 -6e-7,8.035443 z" transform="scale(-0.6)"/></marker><marker id="Arrow2Mend" orient="auto" refX="0" refY="0" style="overflow:visible"><path id="path1115" d="M 8.7185878,4.0337352 -2.2072895,0.01601326 8.7185884,-4.0017078 c -1.7454984,2.3720609 -1.7354408,5.6174519 -6e-7,8.035443 z" transform="scale(-0.6)" style="fill:#000;fill-opacity:1;fill-rule:evenodd;stroke:#000;stroke-width:.625;stroke-linejoin:round;stroke-opacity:1"/></marker><marker id="Arrow2Lend" orient="auto" refX="0" refY="0" style="overflow:visible"><path id="path1109" d="M 8.7185878,4.0337352 -2.2072895,0.01601326 8.7185884,-4.0017078 c -1.7454984,2.3720609 -1.7354408,5.6174519 -6e-7,8.035443 z" transform="matrix(-1.1,0,0,-1.1,-1.1,0)" style="fill:#000;fill-opacity:1;fill-rule:evenodd;stroke:#000;stroke-width:.625;stroke-linejoin:round;stroke-opacity:1"/></marker><marker id="Arrow2Sstart" orient="auto" refX="0" refY="0" style="overflow:visible"><path id="Arrow2SstartPath" d="M 8.72,4.03 -2.21,0.02 8.72,-4 c -1.75,2.37 -1.74,5.62 0,8.03 z" transform="matrix(0.3,0,0,0.3,-0.69,0)" style="fill:#000;fill-opacity:1;stroke:#000;stroke-opacity:1"/></marker><marker id="Arrow2Send" orient="auto" refX="0" refY="0" style="overflow:visible"><path id="Arrow2SendPath" d="M 8.72,4.03 -2.21,0.02 8.72,-4 c -1.75,2.37 -1.74,5.62 0,8.03 z" transform="matrix(-0.3,0,0,-0.3,0.69,0)" style="fill:#000;fill-opacity:1;stroke:#000;stroke-opacity:1"/></marker><marker style="overflow:visible" id="Arrow2Sstart-1" orient="auto" refX="0" refY="0"><path style="fill:#000;fill-opacity:1;stroke:#000;stroke-opacity:1" id="Arrow2SstartPath-8" d="M 8.72,4.03 -2.21,0.02 8.72,-4 c -1.75,2.37 -1.74,5.62 0,8.03 z" transform="matrix(0.3,0,0,0.3,-0.69,0)"/></marker><marker style="overflow:visible" id="Arrow2Send-7" orient="auto" refX="0" refY="0"><path style="fill:#000;fill-opacity:1;stroke:#000;stroke-opacity:1" id="Arrow2SendPath-9" d="M 8.72,4.03 -2.21,0.02 8.72,-4 c -1.75,2.37 -1.74,5.62 0,8.03 z" transform="matrix(-0.3,0,0,-0.3,0.69,0)"/></marker><marker id="marker1726-0" orient="auto" refX="0" refY="0" style="overflow:visible"><path id="path1724-2" d="M 8.7185878,4.0337352 -2.2072895,0.01601326 8.7185884,-4.0017078 c -1.7454984,2.3720609 -1.7354408,5.6174519 -6e-7,8.035443 z" transform="scale(-0.6)" style="fill:#000;fill-opacity:1;fill-rule:evenodd;stroke:#000;stroke-width:.625;stroke-linejoin:round;stroke-opacity:1"/></marker><marker style="overflow:visible" id="Arrow2Sstart-7" orient="auto" refX="0" refY="0"><path style="fill:#000;fill-opacity:1;stroke:#000;stroke-opacity:1" id="Arrow2SstartPath-5" d="M 8.72,4.03 -2.21,0.02 8.72,-4 c -1.75,2.37 -1.74,5.62 0,8.03 z" transform="matrix(0.3,0,0,0.3,-0.69,0)"/></marker><marker style="overflow:visible" id="Arrow2Send-9" orient="auto" refX="0" refY="0"><path style="fill:#000;fill-opacity:1;stroke:#000;stroke-opacity:1" id="Arrow2SendPath-2" d="M 8.72,4.03 -2.21,0.02 8.72,-4 c -1.75,2.37 -1.74,5.62 0,8.03 z" transform="matrix(-0.3,0,0,-0.3,0.69,0)"/></marker><marker style="overflow:visible" id="marker1726-0-3" orient="auto" refX="0" refY="0"><path style="fill:#000;fill-opacity:1;fill-rule:evenodd;stroke:#000;stroke-width:.625;stroke-linejoin:round;stroke-opacity:1" id="path1724-2-6" d="M 8.7185878,4.0337352 -2.2072895,0.01601326 8.7185884,-4.0017078 c -1.7454984,2.3720609 -1.7354408,5.6174519 -6e-7,8.035443 z" transform="scale(-0.6)"/></marker></defs><metadata id="metadata5"/><g id="layer1" transform="translate(-28.381867,-41.18436)"><text style="font-size:2.82223px;line-height:1.25;font-family:sans-serif;letter-spacing:0;word-spacing:0;stroke-width:.264583" id="text892" x="39.601" y="54.462" xml:space="preserve"><tspan style="stroke-width:.264583" id="tspan894" x="39.601" y="57.99">0</tspan></text><text style="font-size:2.82223px;line-height:1.25;font-family:sans-serif;letter-spacing:0;word-spacing:0;stroke-width:.264583" id="text898" x="54.878" y="57.953" xml:space="preserve"><tspan id="tspan896" x="54.878" y="57.953" style="stroke-width:.264583">1</tspan></text><text style="font-size:2.82223px;line-height:1.25;font-family:sans-serif;letter-spacing:0;word-spacing:0;stroke-width:.264583" id="text902" x="46.334" y="53.987" xml:space="preserve"><tspan id="tspan900" x="46.334" y="53.987" style="stroke-width:.264583">0</tspan></text><text style="font-size:2.82223px;line-height:1.25;font-family:sans-serif;letter-spacing:0;word-spacing:0;stroke-width:.264583" id="text906" x="62.174" y="53.95" xml:space="preserve"><tspan id="tspan904" x="62.174" y="53.95" style="stroke-width:.264583">1</tspan></text><text style="font-size:2.82223px;line-height:1.25;font-family:sans-serif;letter-spacing:0;word-spacing:0;stroke-width:.264583" id="text910" x="69.638" y="57.99" xml:space="preserve"><tspan id="tspan908" x="69.638" y="57.99" style="stroke-width:.264583">2</tspan></text><text style="font-size:2.82223px;line-height:1.25;font-family:sans-serif;letter-spacing:0;word-spacing:0;stroke-width:.264583" id="text914" x="77.34" y="53.987" xml:space="preserve"><tspan id="tspan912" x="77.34" y="53.987" style="stroke-width:.264583">2</tspan></text><text style="font-size:2.82223px;line-height:1.25;font-family:sans-serif;letter-spacing:0;word-spacing:0;stroke-width:.264583" id="text918" x="84.606" y="57.99" xml:space="preserve"><tspan id="tspan916" x="84.606" y="57.99" style="stroke-width:.264583">3</tspan></text><text style="font-size:2.82223px;line-height:1.25;font-family:sans-serif;letter-spacing:0;word-spacing:0;stroke-width:.264583" id="text922" x="92.409" y="53.987" xml:space="preserve"><tspan id="tspan920" x="92.409" y="53.987" style="stroke-width:.264583">3</tspan></text><text style="font-size:2.82223px;line-height:1.25;font-family:sans-serif;letter-spacing:0;word-spacing:0;stroke-width:.264583" id="text926" x="34.015" y="62.488" xml:space="preserve"><tspan id="tspan924" x="34.015" y="62.488" style="stroke-width:.264583">0</tspan></text><text style="font-size:2.82223px;line-height:1.25;font-family:sans-serif;letter-spacing:0;word-spacing:0;stroke-width:.264583" id="text930" x="30.263" y="69.829" xml:space="preserve"><tspan id="tspan928" x="30.263" y="69.829" style="stroke-width:.264583">0</tspan></text><text style="font-size:2.82223px;line-height:1.25;font-family:sans-serif;letter-spacing:0;word-spacing:0;stroke-width:.264583" id="text934" x="34.088" y="77.489" xml:space="preserve"><tspan id="tspan932" x="34.088" y="77.489" style="stroke-width:.264583">1</tspan></text><text style="font-size:2.82223px;line-height:1.25;font-family:sans-serif;letter-spacing:0;word-spacing:0;stroke-width:.264583" id="text938" x="30.336" y="85.419" xml:space="preserve"><tspan id="tspan936" x="30.336" y="85.419" style="stroke-width:.264583">1</tspan></text><text style="font-size:2.82223px;line-height:1.25;font-family:sans-serif;letter-spacing:0;word-spacing:0;stroke-width:.264583" id="text942" x="34.11" y="92.508" xml:space="preserve"><tspan id="tspan940" x="34.11" y="92.508" style="stroke-width:.264583">2</tspan></text><text style="font-size:2.82223px;line-height:1.25;font-family:sans-serif;letter-spacing:0;word-spacing:0;stroke-width:.264583" id="text958" x="104.553" y="53.987" xml:space="preserve"><tspan id="tspan956" x="104.553" y="53.987" style="stroke-width:.264583">column</tspan></text><text style="font-size:2.82223px;line-height:1.25;font-family:sans-serif;letter-spacing:0;word-spacing:0;stroke-width:.264583" id="text962" x="104.428" y="57.443" xml:space="preserve"><tspan id="tspan960" x="104.428" y="57.443" style="stroke-width:.264583">edge column</tspan></text><text style="font-size:2.82223px;line-height:1.25;font-family:sans-serif;letter-spacing:0;word-spacing:0;stroke-width:.264583" id="text966" x="43.53" y="-29.273" transform="rotate(90)" xml:space="preserve"><tspan id="tspan964" x="43.53" y="-29.273" style="stroke-width:.264583">row</tspan></text><text style="font-size:2.82223px;line-height:1.25;font-family:sans-serif;letter-spacing:0;word-spacing:0;stroke-width:.264583" id="text970" x="43.231" y="-34.055" transform="rotate(90)" xml:space="preserve"><tspan id="tspan968" x="43.231" y="-34.055" style="stroke-width:.264583">edge row</tspan></text><rect id="use986" width="64.9" height="4.9" x="38.048" y="59.01" style="fill:none;stroke:#000;stroke-width:.0930854;stroke-miterlimit:4;stroke-dasharray:none;paint-order:normal"/><rect id="use988" width="64.9" height="4.9" x="38.048" y="74.01" style="fill:none;stroke:#000;stroke-width:.0930854;stroke-miterlimit:4;stroke-dasharray:none;paint-order:normal"/><rect id="use990" width="64.9" height="4.9" x="38.048" y="93.171" style="fill:none;stroke:#000;stroke-width:.0930854;stroke-miterlimit:4;stroke-dasharray:none;paint-order:normal"/><rect style="fill:none;stroke:#000;stroke-width:.068298;stroke-miterlimit:4;stroke-dasharray:none;paint-order:normal" id="use986-2" width="39.062" height="4.9" x="59.01" y="-102.948" transform="rotate(90)"/><rect style="fill:none;stroke:#000;stroke-width:.068298;stroke-miterlimit:4;stroke-dasharray:none;paint-order:normal" id="use988-9" width="39.062" height="4.9" x="59.01" y="-87.948" transform="rotate(90)"/><rect style="fill:none;stroke:#000;stroke-width:.068298;stroke-miterlimit:4;stroke-dasharray:none;paint-order:normal" id="use990-1" width="39.062" height="4.9" x="59.01" y="-72.948" transform="rotate(90)"/><rect style="fill:none;stroke:#000;stroke-width:.068298;stroke-miterlimit:4;stroke-dasharray:none;paint-order:normal" id="use992-2" width="39.062" height="4.9" x="59.01" y="-57.948" transform="rotate(90)"/><rect style="fill:none;stroke:#000;stroke-width:.068298;stroke-miterlimit:4;stroke-dasharray:none;paint-order:normal" id="use994-7" width="39.062" height="4.9" x="59.01" y="-42.948" transform="rotate(90)"/><rect style="fill:none;stroke:#000;stroke-width:.3;stroke-miterlimit:4;stroke-dasharray:none;paint-order:normal" id="rect1026" width="23.725" height="8.52" x="58.636" y="64.578"/><rect id="rect1026-0" width="23.725" height="12.676" x="43.636" y="79.705" style="fill:none;stroke:#000;stroke-width:.3;stroke-miterlimit:4;stroke-dasharray:none;paint-order:normal"/><rect style="fill:none;stroke:#000;stroke-width:.3;stroke-miterlimit:4;stroke-dasharray:none;paint-order:normal" id="rect1026-0-9" width="23.725" height="8.52" x="73.636" y="79.545"/><path id="path1085" d="m 69.327077,73.163441 v 3.205877 H 55.388909 v 0 3.30445" style="fill:none;stroke:#000;stroke-width:.264583px;stroke-linecap:butt;stroke-linejoin:miter;stroke-opacity:1;marker-end:url(#Arrow2Mend)"/><path style="fill:none;stroke:#000;stroke-width:.264583px;stroke-linecap:butt;stroke-linejoin:miter;stroke-opacity:1;marker-end:url(#marker1388)" id="path1384" d="m 71.333422,73.07529 v 3.336512 h 13.367971 v 3.090428"/><text style="font-size:2.82223px;line-height:1.25;font-family:sans-serif;letter-spacing:0;word-spacing:0;stroke-width:.264583" id="text1428" x="81.705" y="84.69" xml:space="preserve"><tspan id="tspan1426" x="81.705" y="84.69" style="stroke-width:.264583">(2, 1)</tspan></text><text id="text1428-6" x="66.705" y="69.723" xml:space="preserve" style="font-size:2.82223px;line-height:1.25;font-family:sans-serif;letter-spacing:0;word-spacing:0;stroke-width:.264583"><tspan style="stroke-width:.264583" id="tspan1426-0" x="66.705" y="69.723">(1, 0)</tspan></text><text id="text1428-62" x="51.705" y="86.927" xml:space="preserve" style="font-size:2.82223px;line-height:1.25;font-family:sans-serif;letter-spacing:0;word-spacing:0;stroke-width:.264583"><tspan style="stroke-width:.264583" id="tspan1426-6" x="51.705" y="86.927">(0, 1)</tspan></text><path style="fill:none;stroke:#000;stroke-width:.264583;stroke-linecap:square;stroke-linejoin:miter;stroke-miterlimit:4;stroke-dasharray:none;stroke-opacity:1;marker-start:url(#Arrow2Sstart);marker-end:url(#Arrow2Send)" id="path1646" d="m 85.036709,74.435098 -0.0099,1.431015"/><text style="font-size:2.82223px;line-height:1.25;font-family:sans-serif;letter-spacing:0;word-spacing:0;stroke-width:.264583" id="text1720" x="100.387" y="70.049" xml:space="preserve"><tspan id="tspan1718" x="100.387" y="70.049" style="stroke-width:.264583">segment offset</tspan></text><path style="fill:none;stroke:#000;stroke-width:.264583;stroke-linecap:butt;stroke-linejoin:miter;stroke-miterlimit:4;stroke-dasharray:.264583,.529166;stroke-dashoffset:0;stroke-opacity:1;marker-end:url(#marker1726)" id="path1722" d="M 100.24627,70.152448 85.644108,75.098641"/><path id="path1646-2" d="m 68.570639,77.662689 2.143251,0.0099" style="fill:none;stroke:#000;stroke-width:.264583;stroke-linecap:square;stroke-linejoin:miter;stroke-miterlimit:4;stroke-dasharray:none;stroke-opacity:1;marker-start:url(#Arrow2Sstart-1);marker-end:url(#Arrow2Send-7)"/><path style="fill:none;stroke:#000;stroke-width:.264583;stroke-linecap:butt;stroke-linejoin:miter;stroke-miterlimit:4;stroke-dasharray:.264583,.264583;stroke-dashoffset:0;stroke-opacity:1" id="path2057" d="m 71.333422,76.411802 v 1.307449"/><path id="path1722-3" d="M 100.24627,70.152448 72.043698,77.555282" style="fill:none;stroke:#000;stroke-width:.264583;stroke-linecap:butt;stroke-linejoin:miter;stroke-miterlimit:4;stroke-dasharray:.264583,.529167;stroke-dashoffset:0;stroke-opacity:1;marker-end:url(#marker1726-0)"/><path style="fill:none;stroke:#000;stroke-width:.264583px;stroke-linecap:butt;stroke-linejoin:miter;stroke-opacity:1;marker-end:url(#marker2306)" id="path2302" d="m 85.503654,88.13046 0.02905,1.836997 h 13.86685 V 76.894177 H 87.138853 v 2.494365"/><path id="path1646-28" d="m 88.729129,90.472837 -0.0099,2.246409" style="fill:none;stroke:#000;stroke-width:.264583;stroke-linecap:square;stroke-linejoin:miter;stroke-miterlimit:4;stroke-dasharray:none;stroke-opacity:1;marker-start:url(#Arrow2Sstart-7);marker-end:url(#Arrow2Send-9)"/><text id="text1720-9" x="101.43" y="90.214" xml:space="preserve" style="font-size:2.82223px;line-height:1.25;font-family:sans-serif;letter-spacing:0;word-spacing:0;stroke-width:.264583"><tspan style="stroke-width:.264583" id="tspan1718-7" x="101.43" y="90.214">negative</tspan><tspan style="stroke-width:.264583" id="tspan2627" x="101.43" y="93.741">segment offset</tspan></text><path style="fill:none;stroke:#000;stroke-width:.264583;stroke-linecap:butt;stroke-linejoin:miter;stroke-miterlimit:4;stroke-dasharray:.264583,.529167;stroke-dashoffset:0;stroke-opacity:1;marker-end:url(#marker1726-0-3)" id="path1722-3-1" d="M 102.58403,91.354862 89.524132,91.884014"/></g></svg>