<svg xmlns="http://www.w3.org/2000/svg" xmlns:svg="http://www.w3.org/2000/svg" id="svg33" width="355.543" height="203.896" version="1.2" viewBox="0 0 266.658 152.922"><metadata id="metadata37"/><defs id="defs11"><marker id="marker2914" orient="auto" overflow="visible"><path id="path2" fill="#005f87" fill-rule="evenodd" stroke="#005f87" stroke-width="1pt" d="M 0,0 5,-5 -12.5,0 5,5 Z" transform="matrix(-0.2,0,0,-0.2,-1.2,0)"/></marker><marker id="marker2850" orient="auto" overflow="visible"><path id="path5" fill="#5f8700" fill-rule="evenodd" stroke="#5f8700" stroke-width="1pt" d="M 0,0 5,-5 -12.5,0 5,5 Z" transform="matrix(-0.2,0,0,-0.2,-1.2,0)"/></marker><marker id="marker2786" orient="auto" overflow="visible"><path id="path8" fill="#e03030" fill-rule="evenodd" stroke="#e03030" stroke-width="1pt" d="M 0,0 5,-5 -12.5,0 5,5 Z" transform="matrix(-0.2,0,0,-0.2,-1.2,0)"/></marker><marker id="marker2786-3" orient="auto" overflow="visible"><path id="path8-6" fill="#e03030" fill-rule="evenodd" stroke="#e03030" stroke-width="1pt" d="M 0,0 5,-5 -12.5,0 5,5 Z" transform="matrix(-0.2,0,0,-0.2,-1.2,0)"/></marker><marker id="marker2850-7" orient="auto" overflow="visible"><path id="path5-5" fill="#5f8700" fill-rule="evenodd" stroke="#5f8700" stroke-width="1pt" d="M 0,0 5,-5 -12.5,0 5,5 Z" transform="matrix(-0.2,0,0,-0.2,-1.2,0)"/></marker><marker id="marker2914-1" orient="auto" overflow="visible"><path id="path2-2" fill="#005f87" fill-rule="evenodd" stroke="#005f87" stroke-width="1pt" d="M 0,0 5,-5 -12.5,0 5,5 Z" transform="matrix(-0.2,0,0,-0.2,-1.2,0)"/></marker><marker id="marker2914-1-3" orient="auto" overflow="visible"><path id="path2-2-6" fill="#005f87" fill-rule="evenodd" stroke="#005f87" stroke-width="1pt" d="M 0,0 5,-5 -12.5,0 5,5 Z" transform="matrix(-0.2,0,0,-0.2,-1.2,0)"/></marker><marker id="marker2914-1-6" orient="auto" overflow="visible"><path id="path2-2-2" fill="#005f87" fill-rule="evenodd" stroke="#005f87" stroke-width="1pt" d="M 0,0 5,-5 -12.5,0 5,5 Z" transform="matrix(-0.2,0,0,-0.2,-1.2,0)"/></marker><marker id="marker2914-8" orient="auto" overflow="visible"><path id="path2-7" fill="#005f87" fill-rule="evenodd" stroke="#005f87" stroke-width="1pt" d="M 0,0 5,-5 -12.5,0 5,5 Z" transform="matrix(-0.2,0,0,-0.2,-1.2,0)"/></marker><marker id="marker2786-9" orient="auto" overflow="visible"><path id="path8-2" fill="#e03030" fill-rule="evenodd" stroke="#e03030" stroke-width="1pt" d="M 0,0 5,-5 -12.5,0 5,5 Z" transform="matrix(-0.2,0,0,-0.2,-1.2,0)"/></marker><marker id="marker2850-0" orient="auto" overflow="visible"><path id="path5-2" fill="#5f8700" fill-rule="evenodd" stroke="#5f8700" stroke-width="1pt" d="M 0,0 5,-5 -12.5,0 5,5 Z" transform="matrix(-0.2,0,0,-0.2,-1.2,0)"/></marker><marker id="marker2786-3-3" orient="auto" overflow="visible"><path id="path8-6-6" fill="#e03030" fill-rule="evenodd" stroke="#e03030" stroke-width="1pt" d="M 0,0 5,-5 -12.5,0 5,5 Z" transform="matrix(-0.2,0,0,-0.2,-1.2,0)"/></marker><marker id="marker2850-7-1" orient="auto" overflow="visible"><path id="path5-5-2" fill="#5f8700" fill-rule="evenodd" stroke="#5f8700" stroke-width="1pt" d="M 0,0 5,-5 -12.5,0 5,5 Z" transform="matrix(-0.2,0,0,-0.2,-1.2,0)"/></marker><marker id="marker2914-1-9" orient="auto" overflow="visible"><path id="path2-2-3" fill="#005f87" fill-rule="evenodd" stroke="#005f87" stroke-width="1pt" d="M 0,0 5,-5 -12.5,0 5,5 Z" transform="matrix(-0.2,0,0,-0.2,-1.2,0)"/></marker><marker id="marker2914-1-3-1" orient="auto" overflow="visible"><path id="path2-2-6-9" fill="#005f87" fill-rule="evenodd" stroke="#005f87" stroke-width="1pt" d="M 0,0 5,-5 -12.5,0 5,5 Z" transform="matrix(-0.2,0,0,-0.2,-1.2,0)"/></marker><marker id="marker2914-1-6-4" orient="auto" overflow="visible"><path id="path2-2-2-7" fill="#005f87" fill-rule="evenodd" stroke="#005f87" stroke-width="1pt" d="M 0,0 5,-5 -12.5,0 5,5 Z" transform="matrix(-0.2,0,0,-0.2,-1.2,0)"/></marker></defs><rect id="rect13" width="101.07" height="13.331" x="19.869" y="20.398" stroke-width=".14" style="fill:#f5faff;fill-rule:evenodd;stroke:#91c8fa;stroke-linecap:square;stroke-linejoin:bevel"/><rect id="rect15" width="24.597" height="9.369" x="58.106" y="38.913" style="fill:#f5faff;fill-rule:evenodd;stroke:#91c8fa;stroke-width:.1395;stroke-linecap:square;stroke-linejoin:bevel"/><rect id="rect17" width="24.597" height="9.369" x="7.57" y="52.642" style="fill:#f5faff;fill-rule:evenodd;stroke:#91c8fa;stroke-width:.1395;stroke-linecap:square;stroke-linejoin:bevel"/><rect id="rect19" width="24.597" height="9.369" x="108.643" y="52.642" style="fill:#f5faff;fill-rule:evenodd;stroke:#91c8fa;stroke-width:.1395;stroke-linecap:square;stroke-linejoin:bevel"/><path id="path25" stroke="#005f87" stroke-width=".75" marker-end="url(#marker2914)" d="m 70.404751,33.721873 v 5.2398" style="fill:none"/><path style="font-variation-settings:normal;fill:none" id="path27" stroke="#e03030" stroke-miterlimit="2" stroke-width=".75" marker-end="url(#marker2786)" d="m 68.750751,48.243873 v 1.8828 h -48.882 v 2.5231" stop-color="#000"/><path id="path29" stroke="#5f8700" stroke-width=".75" marker-end="url(#marker2850)" d="m 71.872751,48.256873 v 1.8696 h 49.067999 v 3.2324" style="fill:none"/><rect style="fill:#f5faff;fill-rule:evenodd;stroke:#91c8fa;stroke-width:.1395;stroke-linecap:square;stroke-linejoin:bevel" id="rect15-3" width="24.597" height="9.369" x="206.91" y="7.57"/><rect style="fill:#f5faff;fill-rule:evenodd;stroke:#91c8fa;stroke-width:.1395;stroke-linecap:square;stroke-linejoin:bevel" id="rect17-5" width="24.597" height="28.025" x="181.85" y="20.957"/><rect style="fill:#f5faff;fill-rule:evenodd;stroke:#91c8fa;stroke-width:.1395;stroke-linecap:square;stroke-linejoin:bevel" id="rect19-6" width="24.597" height="9.369" x="234.491" y="22"/><path id="path27-2" stroke="#e03030" stroke-miterlimit="2" stroke-width=".75" marker-end="url(#marker2786-3)" d="m 217.55525,16.90075 v 1.8828 h -24.43006 v 2.5231" stop-color="#000" style="font-variation-settings:normal;fill:none;marker-end:url(#marker2786-3)"/><path style="fill:none;marker-end:url(#marker2850-7)" id="path29-9" stroke="#5f8700" stroke-width=".75" marker-end="url(#marker2850-7)" d="m 220.67725,16.91375 v 1.8696 h 26.11198 v 3.2324"/><rect id="rect19-6-0" width="24.597" height="9.369" x="181.85" y="54.222" style="fill:#f5faff;fill-rule:evenodd;stroke:#91c8fa;stroke-width:.1395;stroke-linecap:square;stroke-linejoin:bevel"/><path style="fill:none;marker-end:url(#marker2914-1)" id="path25-7" stroke="#005f87" stroke-width=".75" marker-end="url(#marker2914-1)" d="m 194.14849,48.981943 v 5.2398"/><rect style="fill:#f5faff;fill-rule:evenodd;stroke:#91c8fa;stroke-width:.1395;stroke-linecap:square;stroke-linejoin:bevel" id="rect19-6-0-9" width="24.597" height="9.369" x="234.491" y="54.222"/><path id="path25-7-0" stroke="#005f87" stroke-width=".75" marker-end="url(#marker2914-1-3)" d="M 246.78923,31.368849 V 54.148584" style="fill:none;marker-end:url(#marker2914-1-3)"/><rect style="fill:#f5faff;fill-rule:evenodd;stroke:#91c8fa;stroke-width:.1395;stroke-linecap:square;stroke-linejoin:bevel" id="rect19-6-0-6" width="24.597" height="9.369" x="234.491" y="68.831"/><path id="path25-7-1" stroke="#005f87" stroke-width=".75" marker-end="url(#marker2914-1-6)" d="m 246.78923,63.590837 v 5.2398" style="fill:none;marker-end:url(#marker2914-1-6)"/><rect style="fill:#f5faff;fill-rule:evenodd;stroke:#91c8fa;stroke-linecap:square;stroke-linejoin:bevel" id="rect13-3" width="101.07" height="13.331" x="21.268" y="86.583" stroke-width=".14"/><rect style="fill:#f5faff;fill-rule:evenodd;stroke:#91c8fa;stroke-width:.1395;stroke-linecap:square;stroke-linejoin:bevel" id="rect15-7" width="24.597" height="9.369" x="59.505" y="105.098"/><rect style="fill:#f5faff;fill-rule:evenodd;stroke:#91c8fa;stroke-width:.1395;stroke-linecap:square;stroke-linejoin:bevel" id="rect17-59" width="24.597" height="9.369" x="45.492" y="120.353"/><rect style="fill:#f5faff;fill-rule:evenodd;stroke:#91c8fa;stroke-width:.1395;stroke-linecap:square;stroke-linejoin:bevel" id="rect19-2" width="24.597" height="9.369" x="73.207" y="120.353"/><path style="fill:none;marker-end:url(#marker2914-8)" id="path25-2" stroke="#005f87" stroke-width=".75" marker-end="url(#marker2914-8)" d="m 71.803816,99.907053 v 5.239787"/><path id="path27-8" stroke="#e03030" stroke-miterlimit="2" stroke-width=".75" marker-end="url(#marker2786-9)" d="m 70.149816,114.42904 v 1.8828 H 57.91528 v 3.82797" stop-color="#000" style="font-variation-settings:normal;fill:none;marker-end:url(#marker2786-9)"/><path style="fill:none;marker-end:url(#marker2850-0)" id="path29-97" stroke="#5f8700" stroke-width=".75" marker-end="url(#marker2850-0)" d="m 73.271816,114.44204 v 1.8696 h 12.721232 v 3.23241"/><g id="g1598" transform="translate(-35.90579,-13.250133)"><rect style="fill:#f5faff;fill-rule:evenodd;stroke:#91c8fa;stroke-width:.1395;stroke-linecap:square;stroke-linejoin:bevel" id="rect15-3-8" width="24.597" height="9.369" x="241.843" y="102.581"/><rect style="fill:#f5faff;fill-rule:evenodd;stroke:#91c8fa;stroke-width:.1395;stroke-linecap:square;stroke-linejoin:bevel" id="rect17-5-4" width="24.597" height="28.025" x="216.783" y="115.969"/><rect style="fill:#f5faff;fill-rule:evenodd;stroke:#91c8fa;stroke-width:.1395;stroke-linecap:square;stroke-linejoin:bevel" id="rect19-6-5" width="24.597" height="9.369" x="269.424" y="117.011"/><path id="path27-2-0" stroke="#e03030" stroke-miterlimit="2" stroke-width=".75" marker-end="url(#marker2786-3-3)" d="m 252.48832,111.91234 v 1.8828 h -24.43006 v 2.5231" stop-color="#000" style="font-variation-settings:normal;fill:none;marker-end:url(#marker2786-3-3)"/><path style="fill:none;marker-end:url(#marker2850-7-1)" id="path29-9-3" stroke="#5f8700" stroke-width=".75" marker-end="url(#marker2850-7-1)" d="m 255.61032,111.92534 v 1.8696 h 26.11198 v 3.2324"/><rect id="rect19-6-0-61" width="24.597" height="9.369" x="216.783" y="149.233" style="fill:#f5faff;fill-rule:evenodd;stroke:#91c8fa;stroke-width:.1395;stroke-linecap:square;stroke-linejoin:bevel"/><path style="fill:none;marker-end:url(#marker2914-1-9)" id="path25-7-06" stroke="#005f87" stroke-width=".75" marker-end="url(#marker2914-1-9)" d="m 229.08156,143.99353 v 5.2398"/><rect style="fill:#f5faff;fill-rule:evenodd;stroke:#91c8fa;stroke-width:.1395;stroke-linecap:square;stroke-linejoin:bevel" id="rect19-6-0-9-3" width="24.597" height="9.369" x="269.424" y="130.944"/><path id="path25-7-0-2" stroke="#005f87" stroke-width=".75" marker-end="url(#marker2914-1-3-1)" d="m 281.7223,126.38044 v 4.19969" style="fill:none;marker-end:url(#marker2914-1-3-1)"/><rect style="fill:#f5faff;fill-rule:evenodd;stroke:#91c8fa;stroke-width:.1395;stroke-linecap:square;stroke-linejoin:bevel" id="rect19-6-0-6-0" width="24.597" height="9.369" x="269.424" y="145.553"/><path id="path25-7-1-6" stroke="#005f87" stroke-width=".75" marker-end="url(#marker2914-1-6-4)" d="m 281.7223,140.31331 v 5.2398" style="fill:none;marker-end:url(#marker2914-1-6-4)"/></g></svg>